<mxfile host="Electron" agent="Mozilla/5.0 (Windows NT 10.0; Win64; x64) AppleWebKit/537.36 (KHTML, like Gecko) draw.io/24.7.17 Chrome/128.0.6613.36 Electron/32.0.1 Safari/537.36" version="24.7.17">
  <diagram name="Page-1" id="xqjiCcscGDu1W1ZUPn8J">
    <mxGraphModel dx="1434" dy="844" grid="1" gridSize="10" guides="1" tooltips="1" connect="1" arrows="1" fold="1" page="1" pageScale="1" pageWidth="850" pageHeight="1100" math="0" shadow="0">
      <root>
        <mxCell id="0" />
        <mxCell id="1" parent="0" />
        <mxCell id="5uZNZVi6tMlkiYH-99YS-1" value="" style="rounded=0;whiteSpace=wrap;html=1;fillColor=#60a917;fontColor=#ffffff;strokeColor=#2D7600;" parent="1" vertex="1">
          <mxGeometry x="80" y="160" width="680" height="350" as="geometry" />
        </mxCell>
        <mxCell id="5uZNZVi6tMlkiYH-99YS-3" value="" style="rounded=0;whiteSpace=wrap;html=1;fillColor=#f0a30a;fontColor=#000000;strokeColor=#BD7000;" parent="1" vertex="1">
          <mxGeometry x="329" y="200" width="390" height="40" as="geometry" />
        </mxCell>
        <mxCell id="5uZNZVi6tMlkiYH-99YS-4" value="" style="rounded=0;whiteSpace=wrap;html=1;fillColor=#f0a30a;fontColor=#000000;strokeColor=#BD7000;" parent="1" vertex="1">
          <mxGeometry x="330" y="280" width="390" height="40" as="geometry" />
        </mxCell>
        <mxCell id="5uZNZVi6tMlkiYH-99YS-5" value="" style="rounded=0;whiteSpace=wrap;html=1;fillColor=#f0a30a;fontColor=#000000;strokeColor=#BD7000;" parent="1" vertex="1">
          <mxGeometry x="330" y="360" width="390" height="40" as="geometry" />
        </mxCell>
        <mxCell id="5uZNZVi6tMlkiYH-99YS-6" value="" style="rounded=0;whiteSpace=wrap;html=1;fillColor=#f0a30a;fontColor=#000000;strokeColor=#BD7000;" parent="1" vertex="1">
          <mxGeometry x="330" y="440" width="390" height="40" as="geometry" />
        </mxCell>
        <mxCell id="5uZNZVi6tMlkiYH-99YS-7" value="Name" style="text;html=1;align=left;verticalAlign=middle;whiteSpace=wrap;rounded=0;" parent="1" vertex="1">
          <mxGeometry x="130" y="205" width="60" height="30" as="geometry" />
        </mxCell>
        <mxCell id="5uZNZVi6tMlkiYH-99YS-8" value="Phone number" style="text;html=1;align=left;verticalAlign=middle;whiteSpace=wrap;rounded=0;" parent="1" vertex="1">
          <mxGeometry x="130" y="285" width="100" height="30" as="geometry" />
        </mxCell>
        <mxCell id="5uZNZVi6tMlkiYH-99YS-10" value="Id Number" style="text;html=1;align=left;verticalAlign=middle;whiteSpace=wrap;rounded=0;" parent="1" vertex="1">
          <mxGeometry x="130" y="365" width="60" height="30" as="geometry" />
        </mxCell>
        <mxCell id="5uZNZVi6tMlkiYH-99YS-11" value="Email Id" style="text;html=1;align=left;verticalAlign=middle;whiteSpace=wrap;rounded=0;" parent="1" vertex="1">
          <mxGeometry x="130" y="445" width="60" height="30" as="geometry" />
        </mxCell>
        <mxCell id="5uZNZVi6tMlkiYH-99YS-12" value="OR" style="text;html=1;align=left;verticalAlign=middle;whiteSpace=wrap;rounded=0;" parent="1" vertex="1">
          <mxGeometry x="488" y="245" width="60" height="30" as="geometry" />
        </mxCell>
        <mxCell id="5uZNZVi6tMlkiYH-99YS-13" value="OR" style="text;html=1;align=left;verticalAlign=middle;whiteSpace=wrap;rounded=0;" parent="1" vertex="1">
          <mxGeometry x="488" y="325" width="60" height="30" as="geometry" />
        </mxCell>
        <mxCell id="5uZNZVi6tMlkiYH-99YS-14" value="OR" style="text;html=1;align=left;verticalAlign=middle;whiteSpace=wrap;rounded=0;" parent="1" vertex="1">
          <mxGeometry x="488" y="405" width="60" height="30" as="geometry" />
        </mxCell>
        <mxCell id="5uZNZVi6tMlkiYH-99YS-15" value="&lt;font style=&quot;font-size: 19px;&quot;&gt;Client Details Search and Update&lt;/font&gt;" style="rounded=0;whiteSpace=wrap;html=1;fillColor=#f0a30a;fontColor=#000000;strokeColor=#BD7000;" parent="1" vertex="1">
          <mxGeometry x="80" y="100" width="680" height="60" as="geometry" />
        </mxCell>
        <mxCell id="5uZNZVi6tMlkiYH-99YS-16" value="Text" style="text;html=1;align=center;verticalAlign=middle;whiteSpace=wrap;rounded=0;" parent="1" vertex="1">
          <mxGeometry x="145" y="550" width="60" height="30" as="geometry" />
        </mxCell>
        <mxCell id="5uZNZVi6tMlkiYH-99YS-17" value="" style="rounded=0;whiteSpace=wrap;html=1;fillColor=#60a917;fontColor=#ffffff;strokeColor=#2D7600;" parent="1" vertex="1">
          <mxGeometry x="80" y="510" width="680" height="390" as="geometry" />
        </mxCell>
        <mxCell id="5uZNZVi6tMlkiYH-99YS-18" value="" style="rounded=0;whiteSpace=wrap;html=1;fillColor=#76608a;fontColor=#ffffff;strokeColor=#432D57;" parent="1" vertex="1">
          <mxGeometry x="130" y="540" width="590" height="270" as="geometry" />
        </mxCell>
        <mxCell id="5uZNZVi6tMlkiYH-99YS-20" value="" style="rounded=0;whiteSpace=wrap;html=1;fillColor=#76608a;fontColor=#ffffff;strokeColor=#432D57;" parent="1" vertex="1">
          <mxGeometry x="220" y="540" width="320" height="270" as="geometry" />
        </mxCell>
        <mxCell id="5uZNZVi6tMlkiYH-99YS-21" value="" style="rounded=0;whiteSpace=wrap;html=1;fillColor=#f0a30a;fontColor=#000000;strokeColor=#BD7000;" parent="1" vertex="1">
          <mxGeometry x="130" y="540" width="590" height="50" as="geometry" />
        </mxCell>
        <mxCell id="5uZNZVi6tMlkiYH-99YS-19" value="" style="rounded=0;whiteSpace=wrap;html=1;fillColor=#76608a;fontColor=#ffffff;strokeColor=#432D57;" parent="1" vertex="1">
          <mxGeometry x="130" y="540" width="90" height="270" as="geometry" />
        </mxCell>
        <mxCell id="5uZNZVi6tMlkiYH-99YS-22" value="" style="rounded=0;whiteSpace=wrap;html=1;fillColor=#f0a30a;fontColor=#000000;strokeColor=#BD7000;" parent="1" vertex="1">
          <mxGeometry x="540" y="540" width="179" height="50" as="geometry" />
        </mxCell>
        <mxCell id="5uZNZVi6tMlkiYH-99YS-23" value="Id" style="rounded=0;whiteSpace=wrap;html=1;fillColor=#f0a30a;fontColor=#000000;strokeColor=#BD7000;" parent="1" vertex="1">
          <mxGeometry x="130" y="540" width="90" height="50" as="geometry" />
        </mxCell>
        <mxCell id="5uZNZVi6tMlkiYH-99YS-25" value="&lt;font color=&quot;#000000&quot;&gt;Name&lt;/font&gt;" style="text;html=1;align=center;verticalAlign=middle;whiteSpace=wrap;rounded=0;" parent="1" vertex="1">
          <mxGeometry x="340" y="550" width="60" height="30" as="geometry" />
        </mxCell>
        <mxCell id="5uZNZVi6tMlkiYH-99YS-26" value="&lt;font color=&quot;#000000&quot;&gt;Phone Number&lt;/font&gt;" style="text;html=1;align=center;verticalAlign=middle;whiteSpace=wrap;rounded=0;" parent="1" vertex="1">
          <mxGeometry x="590" y="550" width="100" height="30" as="geometry" />
        </mxCell>
        <mxCell id="5uZNZVi6tMlkiYH-99YS-27" value="Search Details" style="rounded=0;whiteSpace=wrap;html=1;fillColor=#f0a30a;fontColor=#000000;strokeColor=#BD7000;" parent="1" vertex="1">
          <mxGeometry x="310" y="850" width="200" height="30" as="geometry" />
        </mxCell>
      </root>
    </mxGraphModel>
  </diagram>
</mxfile>
